<svg xmlns="http://www.w3.org/2000/svg" width="430" height="129" fill="none" viewBox="0 0 430 129"><g stroke="#fff" opacity=".25"><path d="M165 .5c73.161 0 139.385 4.476 187.309 11.71 23.965 3.617 43.333 7.922 56.698 12.691 6.685 2.386 11.839 4.878 15.312 7.44 3.487 2.571 5.181 5.138 5.181 7.659s-1.694 5.088-5.181 7.66c-3.473 2.561-8.627 5.053-15.312 7.439-13.365 4.77-32.733 9.074-56.698 12.691C304.385 75.024 238.161 79.5 165 79.5c-73.16 0-139.385-4.476-187.309-11.71-23.966-3.618-43.333-7.922-56.698-12.691-6.685-2.386-11.84-4.878-15.312-7.44C-97.805 45.088-99.5 42.521-99.5 40s1.695-5.088 5.18-7.66c3.474-2.561 8.628-5.053 15.313-7.439 13.365-4.77 32.733-9.073 56.698-12.691C25.615 4.976 91.84.5 165 .5Z"/><path d="M165 12.5c73.161 0 139.385 4.476 187.309 11.71 23.965 3.617 43.333 7.922 56.698 12.691 6.685 2.386 11.839 4.878 15.312 7.44 3.487 2.571 5.181 5.138 5.181 7.659s-1.694 5.088-5.181 7.66c-3.473 2.561-8.627 5.053-15.312 7.439-13.365 4.77-32.733 9.073-56.698 12.691C304.385 87.024 238.161 91.5 165 91.5c-73.16 0-139.385-4.476-187.309-11.71-23.966-3.618-43.333-7.922-56.698-12.691-6.685-2.386-11.84-4.878-15.312-7.44C-97.805 57.088-99.5 54.521-99.5 52s1.695-5.088 5.18-7.66c3.474-2.561 8.628-5.053 15.313-7.439 13.365-4.77 32.733-9.074 56.698-12.691C25.615 16.976 91.84 12.5 165 12.5Z"/><path d="M165 25.5c73.161 0 139.385 4.476 187.309 11.71 23.965 3.617 43.333 7.922 56.698 12.691 6.685 2.386 11.839 4.878 15.312 7.44 3.487 2.571 5.181 5.138 5.181 7.659s-1.694 5.088-5.181 7.66c-3.473 2.561-8.627 5.053-15.312 7.439-13.365 4.77-32.733 9.073-56.698 12.691C304.385 100.024 238.161 104.5 165 104.5c-73.16 0-139.385-4.476-187.309-11.71-23.966-3.618-43.333-7.922-56.698-12.691-6.685-2.386-11.84-4.878-15.312-7.44C-97.805 70.088-99.5 67.521-99.5 65s1.695-5.088 5.18-7.66c3.474-2.561 8.628-5.053 15.313-7.439 13.365-4.77 32.733-9.074 56.698-12.691C25.615 29.976 91.84 25.5 165 25.5Z"/><path d="M165 37.5c73.161 0 139.385 4.476 187.309 11.71 23.965 3.617 43.333 7.922 56.698 12.691 6.685 2.386 11.839 4.878 15.312 7.44 3.487 2.571 5.181 5.138 5.181 7.659s-1.694 5.088-5.181 7.66c-3.473 2.561-8.627 5.053-15.312 7.439-13.365 4.77-32.733 9.074-56.698 12.691C304.385 112.024 238.161 116.5 165 116.5c-73.16 0-139.385-4.476-187.309-11.71-23.966-3.617-43.333-7.922-56.698-12.691-6.685-2.386-11.84-4.878-15.312-7.44C-97.805 82.088-99.5 79.521-99.5 77s1.695-5.088 5.18-7.66c3.474-2.561 8.628-5.053 15.313-7.439 13.365-4.77 32.733-9.074 56.698-12.691C25.615 41.976 91.84 37.5 165 37.5Z"/><path d="M165 49.5c73.161 0 139.385 4.476 187.309 11.71 23.965 3.617 43.333 7.922 56.698 12.691 6.685 2.386 11.839 4.878 15.312 7.44 3.487 2.571 5.181 5.138 5.181 7.659s-1.694 5.088-5.181 7.66c-3.473 2.561-8.627 5.053-15.312 7.439-13.365 4.769-32.733 9.074-56.698 12.691C304.385 124.024 238.161 128.5 165 128.5c-73.16 0-139.385-4.476-187.309-11.71-23.966-3.617-43.333-7.922-56.698-12.691-6.685-2.386-11.84-4.878-15.312-7.44C-97.805 94.088-99.5 91.521-99.5 89s1.695-5.088 5.18-7.66c3.474-2.561 8.628-5.053 15.313-7.439 13.365-4.77 32.733-9.073 56.698-12.691C25.615 53.976 91.84 49.5 165 49.5Z"/></g></svg>