<svg xmlns="http://www.w3.org/2000/svg" width="24" height="19" fill="currentColor" viewBox="0 0 24 19"><path id="akar-icons_twitter-fill" d="M23.28 2.245a9.6 9.6 0 0 1-2.742.751 4.8 4.8 0 0 0 2.1-2.643 9.5 9.5 0 0 1-3.033 1.159 4.778 4.778 0 0 0-8.14 4.357A13.56 13.56 0 0 1 1.622.88a4.8 4.8 0 0 0-.646 2.4A4.78 4.78 0 0 0 3.1 7.256a4.76 4.76 0 0 1-2.163-.598v.061a4.78 4.78 0 0 0 3.832 4.684 4.8 4.8 0 0 1-2.158.082A4.78 4.78 0 0 0 7.072 14.8a9.6 9.6 0 0 1-5.932 2.045A10 10 0 0 1 0 16.779a13.5 13.5 0 0 0 7.32 2.146c8.787 0 13.59-7.277 13.59-13.589q0-.309-.014-.617a9.7 9.7 0 0 0 2.382-2.471z"/></svg>