<svg xmlns="http://www.w3.org/2000/svg" width="24" height="24" fill="currentColor" viewBox="0 0 24 24"><path id="LinkedIn" d="M5.34 3.304c-1.14 0-2.068.926-2.068 2.064 0 1.14.928 2.066 2.067 2.066a2.066 2.066 0 0 0 0-4.13M3.554 8.998v11.454h3.562l.001-11.454zm5.798 0V20.45l3.554.002.002-5.668c0-1.454.253-2.941 2.132-2.941 1.851 0 1.851 1.755 1.851 3.036v5.571l3.559-.001v-6.28c0-2.834-.518-5.457-4.27-5.457-1.763 0-2.916.997-3.368 1.85h-.05V8.997zM22.223 24H1.77C.794 24 0 23.223 0 22.268V1.731C0 .776.794 0 1.77 0h20.454C23.204 0 24 .776 24 1.73v20.538c0 .955-.797 1.732-1.776 1.732" clip-rule="evenodd"/></svg>