<svg xmlns="http://www.w3.org/2000/svg" width="25" height="22" fill="none" viewBox="0 0 25 22"><path fill="#fff" fill-rule="evenodd" d="M12.477 0a.75.75 0 0 0-.736.75v14.267a.75.75 0 1 0 1.5 0V.75a.75.75 0 0 0-.763-.75m11.356 4.274a.8.8 0 0 0-.284.064l-6.44 2.875a.752.752 0 0 0 0 1.37l6.44 2.884a.751.751 0 0 0 .612-1.369L19.254 7.9l4.907-2.191a.753.753 0 0 0 .38-.99.75.75 0 0 0-.708-.444M.43 9.504a.75.75 0 0 1 1.046.49 14.05 14.05 0 0 0 13.603 10.504.75.75 0 0 1 0 1.5c-7.082 0-13.274-4.781-15.054-11.627a.75.75 0 0 1 .405-.866" clip-rule="evenodd"/></svg>